<svg width="80" height="77" viewBox="0 0 80 77" fill="none" xmlns="http://www.w3.org/2000/svg">
<path d="M4.75834 9.51668C7.38189 9.51668 9.51668 7.38189 9.51668 4.75834C9.51668 2.1348 7.38189 0 4.75834 0C2.1348 0 0 2.1348 0 4.75834C0 7.38189 2.1348 9.51668 4.75834 9.51668ZM4.75834 2.71905C5.88301 2.71905 6.79763 3.63367 6.79763 4.75834C6.79763 5.88301 5.88301 6.79763 4.75834 6.79763C3.63367 6.79763 2.71905 5.88301 2.71905 4.75834C2.71905 3.63367 3.63401 2.71905 4.75834 2.71905Z" fill="white"/>
<path d="M67.2965 66.6168C64.673 66.6168 62.5382 68.7516 62.5382 71.3751C62.5382 73.9986 64.673 76.1334 67.2965 76.1334C69.92 76.1334 72.0548 73.9986 72.0548 71.3751C72.0548 68.7516 69.92 66.6168 67.2965 66.6168ZM67.2965 73.4144C66.1718 73.4144 65.2572 72.4998 65.2572 71.3751C65.2572 70.2504 66.1718 69.3358 67.2965 69.3358C68.4212 69.3358 69.3358 70.2504 69.3358 71.3751C69.3358 72.4998 68.4212 73.4144 67.2965 73.4144Z" fill="white"/>
<path d="M69.2761 7.53715C69.5416 7.8026 69.8896 7.93549 70.2373 7.93549C70.585 7.93549 70.933 7.8026 71.1985 7.53715L72.7348 6.00089L74.271 7.53715C74.5365 7.8026 74.8845 7.93549 75.2322 7.93549C75.5799 7.93549 75.9279 7.8026 76.1934 7.53715C76.7243 7.00625 76.7243 6.14568 76.1934 5.61478L74.6571 4.07852L76.1934 2.54225C76.7243 2.01136 76.7243 1.15078 76.1934 0.619881C75.6625 0.0889865 74.8019 0.0889865 74.271 0.619881L72.7348 2.15615L71.1985 0.619881C70.6676 0.0889865 69.807 0.0889865 69.2761 0.619881C68.7452 1.15078 68.7452 2.01136 69.2761 2.54225L70.8124 4.07852L69.2761 5.61478C68.7452 6.14568 68.7452 7.00625 69.2761 7.53715Z" fill="white"/>
<path d="M10.9361 64.518C10.4052 63.9871 9.54458 63.9871 9.01369 64.518L7.47742 66.0543L5.94116 64.518C5.41027 63.9871 4.54969 63.9871 4.01879 64.518C3.4879 65.0489 3.4879 65.9095 4.01879 66.4404L5.55505 67.9766L4.01879 69.5129C3.4879 70.0438 3.4879 70.9044 4.01879 71.4353C4.28424 71.7007 4.63228 71.8336 4.97998 71.8336C5.32767 71.8336 5.67571 71.7007 5.94116 71.4353L7.47742 69.899L9.01369 71.4353C9.27913 71.7007 9.62717 71.8336 9.97487 71.8336C10.3226 71.8336 10.6706 71.7007 10.9361 71.4353C11.4669 70.9044 11.4669 70.0438 10.9361 69.5129L9.39979 67.9766L10.9361 66.4404C11.4673 65.9092 11.4673 65.0489 10.9361 64.518Z" fill="white"/>
<path d="M21.0728 6.29796C21.9228 6.29796 22.6124 5.60868 22.6124 4.75864C22.6124 3.90826 21.9232 3.21898 21.0728 3.21898C20.2224 3.21898 19.5331 3.90826 19.5331 4.75864C19.5335 5.60868 20.2227 6.29796 21.0728 6.29796Z" fill="white"/>
<path d="M42.8252 73.9143C41.9751 73.9143 41.2855 74.6036 41.2855 75.454C41.2855 76.3041 41.9748 76.9933 42.8252 76.9933C43.6756 76.9933 44.3648 76.3041 44.3648 75.454C44.3648 74.6036 43.6756 73.9143 42.8252 73.9143Z" fill="white"/>
<path d="M78.4692 18.5048C79.3036 18.3413 79.8474 17.5324 79.6836 16.698C79.5197 15.8636 78.7112 15.3198 77.8768 15.4836C77.0424 15.6474 76.4986 16.456 76.6624 17.2904C76.8262 18.1248 77.6348 18.6683 78.4692 18.5048Z" fill="white"/>
<path d="M79.5989 31.512L74.8762 26.8353C74.4473 26.4091 73.7903 26.3207 73.2645 26.6096L70.8694 27.9266C69.6332 28.6057 68.1836 28.8545 66.9114 28.6502L62.1147 27.3903C63.0076 26.5776 63.93 25.7847 64.9041 25.0363C65.2134 24.7987 65.4061 24.4381 65.4326 24.0486C65.4578 23.6584 65.3143 23.276 65.0397 22.999L57.5331 15.4618C57.1004 15.0298 56.439 14.9367 55.9067 15.2334L52.1031 17.355C49.983 18.5374 47.5001 18.9694 45.1077 18.5683L41.8017 18.0147C40.052 17.722 38.2662 17.5738 36.4924 17.5738H19.0333C18.2819 17.5738 17.6738 18.1826 17.6738 18.9334V28.2152L13.9406 27.2346C13.8277 27.2054 13.7122 27.1901 13.5952 27.1901H2.71904C1.96756 27.1901 1.35951 27.7988 1.35951 28.5496V42.1449C1.35951 42.8957 1.96756 43.5044 2.71904 43.5044H5.86838C6.44856 43.5044 6.96518 43.136 7.15347 42.5878L7.86518 40.5199C8.48377 38.985 9.96565 37.9939 11.6396 37.9939H12.6524C10.1339 41.7374 5.55739 49.7379 5.55739 58.4592C5.55739 59.21 6.16544 59.8187 6.91691 59.8187H21.6113C22.0535 59.8187 22.4665 59.6043 22.7214 59.244C22.9763 58.8837 23.0402 58.4215 22.8927 58.0051C22.8645 57.9242 20.172 50.0641 22.96 40.7854H24.0384C24.6159 40.7854 25.1298 40.421 25.3208 39.8759L26.4693 36.6011C27.5793 33.8164 30.2253 32.0168 33.2112 32.0168H36.4414C32.8964 37.3352 24.4711 51.5593 24.4711 66.6164C24.4711 67.3672 25.0792 67.9759 25.8306 67.9759H48.9426C49.3647 67.9759 49.7617 67.7801 50.0193 67.446C50.277 67.1119 50.3646 66.6779 50.2569 66.2704C50.228 66.1609 47.4923 55.3901 51.508 43.5044H53.4511C54.0313 43.5044 54.5479 43.1367 54.7362 42.5878L55.4479 40.5199C56.0665 38.985 57.5484 37.9939 59.2223 37.9939H60.2351C57.7166 41.7374 53.1401 49.7379 53.1401 58.4592C53.1401 59.21 53.7482 59.8187 54.4996 59.8187H69.1941C69.6295 59.8187 70.0383 59.6104 70.2933 59.2586C70.5495 58.9068 70.6212 58.4534 70.487 58.0398C70.4367 57.8865 65.6688 42.6085 79.3851 33.6149C79.729 33.3899 79.952 33.0221 79.9931 32.6139C80.0343 32.2057 79.8895 31.8009 79.5989 31.512ZM19.8181 57.1H8.31791C8.93785 46.8285 16.2946 37.5847 16.3728 37.4885C16.7007 37.081 16.767 36.5205 16.5413 36.0488C16.3143 35.576 15.8378 35.2756 15.3147 35.2756H11.6396C8.85152 35.2756 6.37922 36.9345 5.31845 39.5686L4.89904 40.7861H4.07856V29.9098H13.4199L17.6738 31.0274V39.4265C17.6738 40.1773 18.2819 40.7861 19.0333 40.7861H20.122C18.1643 47.9385 19.1166 54.1509 19.8181 57.1ZM47.2663 65.2572H27.216C27.8387 48.0075 40.0119 31.6436 40.1383 31.4753C40.4476 31.0637 40.4992 30.5121 40.2685 30.0509C40.0387 29.5897 39.5676 29.2981 39.0524 29.2981H33.2118C29.1054 29.2981 25.469 31.7693 23.9249 35.6484L23.0752 38.0667H20.3929V20.2932H36.492C38.1157 20.2932 39.7515 20.4292 41.3527 20.697L44.6587 21.2507C47.6527 21.7513 50.7688 21.2123 53.428 19.7304L56.333 18.1098L62.0392 23.8399C60.7541 24.8949 59.538 26.0087 58.4093 27.1636C58.4015 27.1714 58.3994 27.1823 58.392 27.1901H50.3024C49.551 27.1901 48.9429 27.7988 48.9429 28.5496V42.1449C48.9429 42.2424 48.9789 42.3284 48.9987 42.4205C45.5546 52.429 46.5974 61.5708 47.2663 65.2572ZM67.4733 57.1H55.9013C56.5213 46.8285 63.878 37.5847 63.9562 37.4885C64.2841 37.081 64.3504 36.5205 64.1247 36.0488C63.8977 35.576 63.4212 35.2756 62.8981 35.2756H59.2233C56.4353 35.2756 53.963 36.9345 52.9022 39.5686L52.4828 40.7861H51.6623V29.9098H61.0036L66.3448 31.3071C68.3389 31.633 70.4129 31.2819 72.1799 30.3092L73.6843 29.4819L76.5267 32.2965C65.4802 40.5077 66.5875 52.5929 67.4733 57.1Z" fill="white"/>
</svg>
