<svg width="80" height="87" viewBox="0 0 80 87" fill="none" xmlns="http://www.w3.org/2000/svg">
<path d="M30.5592 57.1059C31.3408 57.1054 32.1196 57.015 32.8805 56.8364C34.3183 56.5026 35.6651 55.8567 36.8254 54.9445L35.7542 60.6106C35.7159 60.8131 35.7388 61.0225 35.82 61.2119C35.9012 61.4013 36.0371 61.5622 36.2102 61.6741C36.3833 61.786 36.5858 61.8437 36.7919 61.8399C36.9979 61.8361 37.1982 61.7709 37.3671 61.6528C39.1386 60.4091 41.3222 59.898 43.4617 60.2262C43.6631 60.2568 43.8691 60.2273 44.0539 60.1414C44.2387 60.0556 44.3941 59.9172 44.5007 59.7436C44.6072 59.5699 44.6603 59.3687 44.6532 59.1651C44.6461 58.9615 44.5791 58.7644 44.4607 58.5987L41.1133 53.9134C43.4316 54.3583 45.8324 53.9775 47.8991 52.837C49.9659 51.6964 51.568 49.8682 52.4274 47.6697C53.2869 45.4712 53.3493 43.0411 52.604 40.8013C51.8587 38.5615 50.3526 36.6534 48.3472 35.4082L32.9427 25.8491C32.8267 25.7771 32.6976 25.7288 32.5628 25.7068C32.4281 25.6848 32.2903 25.6897 32.1575 25.7211C32.0246 25.7525 31.8993 25.8099 31.7886 25.8899C31.678 25.9699 31.5843 26.0709 31.5128 26.1873L21.9959 41.674C21.0483 43.2028 20.5259 44.9568 20.4826 46.7549C20.4392 48.553 20.8764 50.3301 21.7491 51.9028C22.6218 53.4755 23.8984 54.7868 25.4471 55.7015C26.9958 56.6161 28.7605 57.1009 30.5591 57.1059H30.5592ZM38.1974 58.8466L39.0121 54.5393L41.5387 58.076C40.39 58.1466 39.261 58.407 38.1974 58.8466ZM22.7613 48.8305C22.5179 47.8036 22.4808 46.7385 22.6522 45.6971C22.8237 44.6557 23.2002 43.6587 23.7599 42.7639L32.7341 28.1598L47.2532 37.1698C49.0508 38.2877 50.334 40.0703 50.8237 42.1297C51.3133 44.1891 50.9696 46.3586 49.8675 48.1659C48.7654 49.9731 46.994 51.2719 44.939 51.7795C42.8839 52.2871 40.7116 51.9624 38.8947 50.8762C38.6761 50.7448 38.4166 50.6988 38.1662 50.7469L38.0843 50.7625C37.9436 50.7895 37.81 50.8453 37.692 50.9265C37.5739 51.0077 37.474 51.1124 37.3985 51.2342C36.5612 52.5831 35.3427 53.6534 33.897 54.3099C32.4514 54.9663 30.8436 55.1794 29.2769 54.9221C27.7102 54.6649 26.255 53.9488 25.0952 52.8645C23.9354 51.7802 23.1232 50.3764 22.7613 48.8305Z" fill="white"/>
<path d="M18.1036 25.8446L12.5953 16.3929C12.3362 15.9414 11.6839 15.855 11.0687 15.9989C10.4697 16.1392 9.92374 16.506 9.89178 17.0257L9.15093 27.9403C9.14774 27.9968 9.14959 28.0536 9.15646 28.1098C9.2774 28.6281 10.1219 28.8059 10.6886 28.6732C11.0449 28.5899 11.2933 28.4121 11.3025 28.0858L11.4136 25.7879L15.1209 24.9202L16.2401 26.9294C16.3932 27.2179 16.6949 27.267 17.0511 27.1835C17.6176 27.0509 18.2914 26.5006 18.1741 25.9985C18.1566 25.9447 18.133 25.893 18.1036 25.8446ZM11.4642 24.0348L11.7092 18.735L14.2811 23.375L11.4642 24.0348Z" fill="white"/>
<path d="M77.4875 8.87935C76.806 8.19926 75.9959 7.6617 75.1044 7.29803C74.213 6.93435 73.258 6.75184 72.2953 6.76114L57.9983 6.83768L57.5167 4.78064C57.1424 3.18171 56.1482 1.79696 54.753 0.930984C53.3577 0.0650066 51.6756 -0.211271 50.0766 0.16292L4.77916 10.7664C3.18117 11.1423 1.79758 12.1368 0.931916 13.5316C0.0662545 14.9265 -0.210773 16.6077 0.16161 18.2065L15.0829 81.9494C15.4014 83.3074 16.1686 84.5182 17.2605 85.3862C18.3523 86.2541 19.7051 86.7284 21.0999 86.7323C21.579 86.732 22.0564 86.6765 22.5228 86.567L29.9049 84.8392L72.7125 84.6098C74.655 84.5972 76.5132 83.8146 77.8794 82.4336C79.2455 81.0527 80.0082 79.1863 79.9999 77.2438L79.6611 14.0484C79.6586 13.0859 79.4652 12.1334 79.0921 11.2461C78.719 10.3588 78.1736 9.5544 77.4875 8.87935ZM22.0503 84.5483C21.5237 84.6716 20.9779 84.69 20.4442 84.6024C19.9105 84.5147 19.3992 84.3228 18.9397 84.0376C18.4801 83.7524 18.0813 83.3794 17.7659 82.94C17.4505 82.5006 17.2247 82.0034 17.1015 81.4767L2.18012 17.7338C1.93249 16.6703 2.11681 15.5521 2.69264 14.6243C3.26847 13.6966 4.18879 13.0351 5.25169 12.7851L50.549 2.18161C50.8592 2.10887 51.1769 2.07212 51.4956 2.07207C52.4234 2.07463 53.3232 2.39008 54.0496 2.96741C54.7759 3.54474 55.2862 4.3502 55.4981 5.25352L70.4191 68.9964C70.668 70.0598 70.4844 71.1784 69.9086 72.1064C69.3328 73.0344 68.412 73.6957 67.3488 73.9448L29.6295 82.7746C29.5539 82.7836 29.4795 82.801 29.4077 82.8264L22.0503 84.5483ZM72.7013 82.5363L38.9697 82.7171L67.8203 75.9637C68.612 75.7784 69.3595 75.439 70.02 74.9648C70.6806 74.4906 71.2412 73.8909 71.67 73.2C72.0988 72.5091 72.3873 71.7405 72.519 70.9381C72.6507 70.1357 72.623 69.3153 72.4376 68.5235L58.4829 8.90837L72.3063 8.83425H72.3354C73.7237 8.83423 75.0556 9.3839 76.0398 10.3631C77.024 11.3423 77.5806 12.6713 77.5877 14.0596L77.9265 77.2547C77.9324 78.6475 77.3856 79.9858 76.406 80.976C75.4265 81.9661 74.0941 82.5273 72.7013 82.5363Z" fill="white"/>
</svg>
