<svg width="80" height="82" viewBox="0 0 80 82" fill="none" xmlns="http://www.w3.org/2000/svg">
<path d="M65.1288 35.3571C62.3029 35.7297 59.6311 36.918 57.9057 37.9903C52.5057 33.0864 50.3362 26.1137 49.4722 20.9776C48.8804 17.4405 48.7035 13.8465 48.9453 10.2685C52.2947 5.05846 54.8192 1.64731 54.8567 1.59696C55.0149 1.38398 55.0821 1.11686 55.0434 0.854384C55.0046 0.591905 54.8632 0.355559 54.6502 0.197341C54.4372 0.0391223 54.1701 -0.0280081 53.9077 0.0107174C53.6452 0.0494429 53.4088 0.190852 53.2506 0.403836C53.2243 0.43935 51.9801 2.12 50.0854 4.91257C47.9057 5.09083 45.7402 5.41265 43.6029 5.87594C43.3727 5.59104 43.0868 5.35606 42.7627 5.18534C39.6034 3.53593 36.0671 2.7432 32.506 2.88612C26.6587 3.15406 21.2043 6.00632 16.2942 11.3639C8.71934 19.6291 3.41047 21.0056 1.14343 21.5936L0.978699 21.6365C0.697272 21.7096 0.448242 21.8744 0.270994 22.1049C0.0937455 22.3354 -0.0016055 22.6184 2.0455e-05 22.9092C0.00164641 23.1999 0.100156 23.4818 0.279971 23.7103C0.459786 23.9388 0.710644 24.1009 0.992871 24.1708C5.71737 25.2674 10.5414 25.8792 15.3901 25.9967C15.8791 26.0078 16.3621 26.0133 16.8388 26.0133C24.799 26.0133 31.1871 24.4542 35.8421 21.3724C40.4342 18.3324 43.2378 13.8418 44.1755 8.02543C44.1872 7.95207 44.196 7.87887 44.2018 7.80585C45.9503 7.43637 47.4971 7.20862 48.6415 7.0714C46.6639 10.0659 44.2588 13.878 41.8519 18.107C34.9616 30.2138 31.0087 40.3725 30.0675 48.3643C29.3313 48.1852 28.0899 47.7003 26.4358 46.3968C24.6199 44.9661 22.2825 44.4929 19.8539 45.0643C15.989 45.9735 12.4386 49.317 10.1134 54.2374C8.61659 57.422 7.98644 60.9452 8.28653 64.4513C8.58662 67.9573 9.80632 71.3222 11.8225 74.2062C13.0383 75.944 14.7357 77.4109 17.0115 78.6912C19.6647 80.1839 22.5817 81.149 25.6017 81.5333C26.3993 81.6393 27.2029 81.6941 28.0076 81.6972C29.657 81.7059 31.2946 81.419 32.8428 80.8501C35.8122 79.7684 38.4823 77.997 40.6333 75.6817C42.7843 73.3663 44.3546 70.5732 45.215 67.5323C45.2579 67.3838 45.2656 67.2274 45.2378 67.0753C45.2099 66.9233 45.1471 66.7798 45.0543 66.6562C44.9616 66.5325 44.8414 66.4321 44.7032 66.3628C44.5651 66.2935 44.4127 66.2572 44.2582 66.2568H44.2497C44.0319 66.2573 43.8204 66.329 43.6472 66.461C43.4741 66.593 43.3488 66.778 43.2906 66.9877C42.5166 69.7236 41.1039 72.2366 39.1687 74.3197C37.2335 76.4028 34.8313 77.9965 32.1597 78.9695C30.1776 79.6895 28.293 79.863 25.8573 79.5487C23.0924 79.1973 20.4216 78.3141 17.9924 76.9477C15.984 75.8181 14.5021 74.5468 13.4622 73.0602C11.6478 70.4655 10.55 67.4381 10.2797 64.2835C10.0094 61.1289 10.5761 57.9588 11.9226 55.0932C14.8529 48.8921 18.7659 47.3767 20.3123 47.0129C20.8178 46.8916 21.3356 46.8291 21.8554 46.8268C23.0674 46.8141 24.2472 47.2174 25.1978 47.9694C26.7839 49.2199 28.1008 49.8518 29.0875 50.1675C28.693 50.3087 28.3169 50.4969 27.9674 50.7282C27.8525 50.8034 27.745 50.8794 27.6443 50.9543C27.4963 50.7537 27.3601 50.5449 27.2361 50.3287C27.1098 50.097 26.8971 49.9246 26.6443 49.849C26.3914 49.7734 26.119 49.8008 25.8862 49.9252C25.6535 50.0496 25.4793 50.2609 25.4017 50.5131C25.324 50.7653 25.3491 51.038 25.4716 51.2717C25.5383 51.3971 27.1426 54.3542 30.0807 55.158C30.5657 55.2917 31.0664 55.3596 31.5695 55.3598C32.7324 55.3598 33.9154 54.9971 35.1021 54.2742C35.3273 54.1355 35.4884 53.9133 35.5502 53.6561C35.612 53.399 35.5694 53.1278 35.4319 52.902C35.2943 52.6761 35.0728 52.5139 34.816 52.4509C34.5591 52.3878 34.2878 52.4291 34.0612 52.5655C34.0306 52.584 34.0002 52.6009 33.9697 52.6189C33.7543 52.1934 33.4958 51.7911 33.1982 51.4184C34.4204 51.6661 35.67 51.7506 36.9143 51.6699C38.622 51.5768 40.1934 52.2764 41.4584 53.6945C42.2729 54.6077 43.8427 56.8849 44.0022 60.9629C44.0124 61.227 44.1271 61.4762 44.3211 61.6557C44.5151 61.8352 44.7724 61.9303 45.0365 61.9201C45.3005 61.9099 45.5497 61.7952 45.7293 61.6013C45.9088 61.4073 46.0039 61.15 45.9937 60.8859C45.9485 59.6075 45.7584 58.3383 45.4268 57.1028C46.7745 61.144 49.6497 64.8057 53.6231 67.2694C54.8934 68.0568 56.5674 68.6964 58.4639 69.1191C59.7077 69.3963 60.9782 69.5361 62.2526 69.5359C65.6733 69.5275 69.0184 68.5292 71.8842 66.6614C74.75 64.7937 77.0139 62.1363 78.4026 59.0102C78.4508 58.9008 83.1459 47.9749 76.2083 39.6461C73.3855 36.2568 69.5544 34.773 65.1288 35.3571ZM34.7375 19.7046C25.3879 25.8948 10.2146 23.9209 4.11107 22.7833C7.12123 21.685 11.814 19.2136 17.7693 12.7157C22.3091 7.7625 27.298 5.12765 32.5975 4.88472C35.4727 4.7672 38.3352 5.32934 40.9524 6.52552C38.39 7.21061 35.9125 8.1807 33.5662 9.41763C31.5928 10.4859 30.0339 11.7935 28.5263 13.0582C26.3483 14.8854 24.4672 16.4633 21.8144 16.9374C21.5682 16.9812 21.3474 17.1156 21.1955 17.3141C21.0435 17.5127 20.9714 17.7609 20.9933 18.0099C21.0152 18.259 21.1296 18.4908 21.3139 18.6597C21.4982 18.8287 21.7391 18.9224 21.9891 18.9226C22.0487 18.9229 22.1083 18.9178 22.167 18.9073C25.3451 18.3404 27.5152 16.519 29.8129 14.5916C31.2442 13.3912 32.7241 12.1493 34.5194 11.1776C36.9517 9.86047 39.6299 8.94145 42.095 8.3012C41.1605 13.2541 38.688 17.0899 34.7375 19.7046ZM30.6193 53.2305C30.0441 53.0655 29.5071 52.7886 29.0391 52.4156C29.4958 52.1144 30.0682 51.8633 30.5969 51.9615C31.2083 52.0755 31.701 52.6532 32.076 53.3182C31.5894 53.3879 31.0937 53.358 30.6189 53.2305H30.6193ZM45.1758 56.2821C44.705 54.8395 43.9487 53.5063 42.952 52.362C41.2918 50.5011 39.1092 49.5464 36.8055 49.6713C34.2647 49.811 32.7182 49.2653 32.019 48.9253C32.8656 41.2202 36.8296 30.9809 43.5801 19.1162C44.6793 17.1841 45.7781 15.3406 46.835 13.6236C46.8545 16.1806 47.0736 18.7323 47.4904 21.2552C48.6547 28.2322 51.3177 34.0142 55.2539 38.1874C53.2086 38.3027 51.2384 38.9981 49.5737 40.192C46.7978 42.2299 45.142 45.6379 44.6525 50.321C44.4502 52.3233 44.6278 54.3457 45.1758 56.2821ZM76.5729 58.2014C73.5594 65.0062 66.1267 68.7761 58.8994 67.1655C57.2193 66.7912 55.7592 66.2386 54.6775 65.5682C49.1962 62.1706 46.0422 56.2675 46.6419 50.5291C47.0692 46.4415 48.4476 43.5109 50.7386 41.8186C52.6135 40.4334 54.7455 40.1644 56.1189 40.1644C56.472 40.1644 56.774 40.1823 57.0097 40.2035C56.9088 41.0534 56.9818 41.9149 57.2241 42.7358C56.9834 42.6953 56.7362 42.7442 56.529 42.8733C56.3219 43.0024 56.1691 43.2028 56.0994 43.4367C56.0297 43.6706 56.048 43.922 56.1507 44.1434C56.2535 44.3648 56.4336 44.541 56.6573 44.6388C57.2659 44.8896 57.9186 45.016 58.5768 45.0105C60.2851 45.0105 62.445 44.1982 63.9534 41.2924C64.0151 41.1757 64.053 41.0479 64.0651 40.9165C64.0772 40.7851 64.0631 40.6525 64.0238 40.5266C63.9844 40.4006 63.9205 40.2837 63.8357 40.1825C63.7509 40.0813 63.647 39.9979 63.5298 39.9371C63.4127 39.8763 63.2847 39.8393 63.1532 39.8281C63.0217 39.817 62.8892 39.832 62.7636 39.8723C62.6379 39.9126 62.5214 39.9774 62.4208 40.0629C62.3203 40.1484 62.2377 40.2529 62.1777 40.3705C61.3711 41.9241 60.4072 42.6 59.5582 42.862C59.2801 42.6144 58.721 41.8314 59.0945 39.7028L58.9716 39.6813C60.4979 38.7299 62.8731 37.6718 65.3908 37.34C69.1539 36.8437 72.2767 38.0503 74.6718 40.9257C80.7809 48.2614 76.6136 58.1078 76.5729 58.2014Z" fill="white"/>
<path d="M15.1643 56.8052C15.0394 56.7645 14.9076 56.7489 14.7767 56.7592C14.6457 56.7694 14.518 56.8054 14.4009 56.865C14.2838 56.9247 14.1796 57.0068 14.0943 57.1067C14.009 57.2066 13.9441 57.3223 13.9035 57.4472C13.6484 58.2322 12.4474 62.3536 13.8702 66.4174C13.9579 66.6678 14.1415 66.8731 14.3806 66.9882C14.6196 67.1032 14.8946 67.1186 15.1451 67.0309C15.3955 66.9431 15.6008 66.7596 15.7158 66.5205C15.8309 66.2814 15.8463 66.0064 15.7585 65.7559C14.5481 62.2996 15.5858 58.7441 15.8061 58.0665C15.8468 57.9415 15.8625 57.8098 15.8523 57.6787C15.8421 57.5477 15.8061 57.42 15.7465 57.3029C15.6869 57.1857 15.6048 57.0815 15.5049 56.9961C15.405 56.9107 15.2893 56.8458 15.1643 56.8052Z" fill="white"/>
<path d="M16.8878 55.5415C17.0845 55.2015 17.3075 54.8774 17.5547 54.5723C17.7258 54.3717 17.8108 54.1118 17.7912 53.8489C17.7717 53.586 17.6492 53.3415 17.4503 53.1685C17.2515 52.9954 16.9923 52.9079 16.7293 52.9248C16.4662 52.9417 16.2205 53.0618 16.0455 53.259C15.7174 53.654 15.4234 54.0761 15.1668 54.5209C15.0983 54.634 15.0528 54.7595 15.0331 54.8902C15.0134 55.021 15.0197 55.1543 15.0518 55.2826C15.0839 55.4108 15.1412 55.5314 15.2202 55.6374C15.2992 55.7434 15.3984 55.8327 15.5121 55.9001C15.6259 55.9675 15.7518 56.0118 15.8827 56.0302C16.0136 56.0486 16.1469 56.0409 16.2748 56.0076C16.4028 55.9742 16.5228 55.9158 16.628 55.8357C16.7332 55.7557 16.8215 55.6556 16.8878 55.5412V55.5415Z" fill="white"/>
<path d="M57.0679 61.402C53.85 59.6703 52.2232 56.3444 51.9298 55.6953C51.8205 55.4535 51.6196 55.265 51.3714 55.1714C51.1232 55.0777 50.8479 55.0865 50.6061 55.1957C50.3643 55.305 50.1759 55.5059 50.0822 55.7541C49.9885 56.0024 49.9973 56.2776 50.1066 56.5194C50.4467 57.2715 52.3344 61.1269 56.1197 63.1637C56.2355 63.2277 56.3629 63.268 56.4944 63.2825C56.6259 63.2969 56.759 63.2851 56.8859 63.2478C57.0128 63.2105 57.1311 63.1483 57.2338 63.065C57.3366 62.9816 57.4218 62.8787 57.4845 62.7622C57.5472 62.6457 57.5861 62.5179 57.5991 62.3863C57.6121 62.2546 57.5988 62.1216 57.5601 61.9951C57.5214 61.8686 57.4579 61.7511 57.3734 61.6493C57.2889 61.5474 57.1851 61.4634 57.0679 61.402Z" fill="white"/>
<path d="M50.2513 54.2827C50.38 54.2562 50.5022 54.2045 50.6109 54.1307C50.7196 54.0569 50.8127 53.9625 50.8849 53.8527C50.9571 53.7429 51.0069 53.62 51.0316 53.491C51.0563 53.3619 51.0553 53.2293 51.0288 53.1006C50.9453 52.7163 50.8919 52.3261 50.8692 51.9335C50.8631 51.6682 50.7518 51.4162 50.5599 51.2329C50.3679 51.0496 50.111 50.9501 49.8457 50.9562C49.5804 50.9623 49.3284 51.0736 49.1451 51.2655C48.9618 51.4575 48.8623 51.7144 48.8684 51.9797C48.8921 52.4931 48.959 53.0036 49.0685 53.5058C49.095 53.6345 49.1465 53.7567 49.2203 53.8654C49.294 53.9742 49.3885 54.0673 49.4983 54.1395C49.6081 54.2117 49.731 54.2616 49.8601 54.2862C49.9892 54.3108 50.1218 54.3098 50.2505 54.2831L50.2513 54.2827Z" fill="white"/>
<path d="M18.8657 17.9736C18.1771 18.3525 17.4298 18.6133 16.6549 18.7452C16.5263 18.772 16.4042 18.8239 16.2956 18.8979C16.1871 18.9719 16.0942 19.0666 16.0222 19.1765C15.9502 19.2864 15.9006 19.4094 15.8761 19.5385C15.8517 19.6676 15.8529 19.8002 15.8797 19.9288C15.9066 20.0574 15.9585 20.1795 16.0325 20.2881C16.1065 20.3966 16.2011 20.4896 16.311 20.5615C16.4209 20.6335 16.5439 20.6831 16.673 20.7076C16.8021 20.732 16.9348 20.7308 17.0634 20.704C18.0147 20.5355 18.9324 20.2142 19.7811 19.7526C20.0146 19.6299 20.1902 19.4198 20.2696 19.1683C20.349 18.9167 20.3259 18.644 20.2052 18.4094C20.0845 18.1748 19.876 17.9974 19.6252 17.9158C19.3743 17.8342 19.1013 17.8549 18.8657 17.9736Z" fill="white"/>
</svg>
