<svg width="50" height="50" viewBox="0 0 50 50" fill="none" xmlns="http://www.w3.org/2000/svg">
<path d="M49.9218 26.207L44.6953 2.61189C44.5031 1.7492 43.9767 0.997954 43.2313 0.522957C42.486 0.047961 41.5827 -0.11199 40.7196 0.0781962L17.1246 5.30476C16.6972 5.39943 16.2926 5.57736 15.934 5.8284C15.5753 6.07944 15.2696 6.39866 15.0344 6.76785C14.7991 7.13703 14.6389 7.54894 14.5628 7.98006C14.4867 8.41117 14.4963 8.85305 14.591 9.28046L16.7808 19.1661H3.3334C2.44963 19.1671 1.60235 19.5186 0.977426 20.1435C0.352508 20.7684 0.000992565 21.6157 0 22.4995V46.6666C0.000992565 47.5504 0.352508 48.3977 0.977426 49.0226C1.60235 49.6475 2.44963 49.999 3.3334 50H27.5005C28.3843 49.999 29.2316 49.6475 29.8565 49.0226C30.4814 48.3977 30.833 47.5504 30.8339 46.6666V33.8494L47.3881 30.1826C48.2508 29.9905 49.002 29.464 49.477 28.7187C49.952 27.9734 50.112 27.0701 49.9218 26.207ZM27.5005 46.6666H3.3334V22.4995H17.5192L19.8175 32.8753C19.9816 33.615 20.3927 34.2769 20.983 34.7519C21.5733 35.227 22.3077 35.4869 23.0655 35.4891C23.3102 35.4889 23.5541 35.4621 23.793 35.409L27.5014 34.5875L27.5026 46.6666H27.5005ZM46.6676 26.928L23.072 32.1544L17.8456 8.55919L41.4408 3.33243L46.6694 26.9272L46.6676 26.928Z" fill="white"/>
<path d="M6 26H11V30H6V26Z" fill="white"/>
<path d="M6 39H11V43H6V39Z" fill="white"/>
<path d="M20 39H24V43H20V39Z" fill="white"/>
<path d="M14 32H18V37H14V32Z" fill="white"/>
<path d="M22 11.9061L26.0939 11L27 15.0939L22.9061 16L22 11.9061Z" fill="white"/>
<path d="M38 21.9066L42.0934 21L43 25.0934L38.9066 26L38 21.9066Z" fill="white"/>
<path d="M30 16.7253L34.0933 16L35 19.2747L30.9068 20L30 16.7253Z" fill="white"/>
</svg>
