<svg width="80" height="80" viewBox="0 0 80 80" fill="none" xmlns="http://www.w3.org/2000/svg">
<path d="M40 12C17.5707 12 0 20.7853 0 32V44C0 55.2147 17.5707 64 40 64C62.4293 64 80 55.2147 80 44V32C80 20.7853 62.4293 12 40 12ZM40 14.6667C60.2373 14.6667 77.3333 22.604 77.3333 32C77.3333 41.396 60.2373 49.3333 40 49.3333C19.7627 49.3333 2.66667 41.396 2.66667 32C2.66667 22.604 19.7627 14.6667 40 14.6667ZM46.2627 51.7653C46.3467 51.7587 46.4267 51.7507 46.5107 51.744C47.3533 51.6773 48.184 51.596 49.0067 51.5053C49.1147 51.4933 49.2267 51.4867 49.3333 51.4747V60.76C48.024 60.9227 46.6893 61.052 45.3333 61.1467V51.8267C45.6427 51.8053 45.9547 51.7893 46.2627 51.7653ZM52 51.1187C52.0667 51.108 52.1307 51.0973 52.196 51.0867C52.3227 51.0667 52.4453 51.044 52.572 51.024C53.3307 50.9027 54.0787 50.7693 54.816 50.6253C54.9893 50.592 55.1653 50.5587 55.3373 50.524C55.5587 50.4787 55.78 50.4347 56 50.388V59.5973C54.7053 59.892 53.368 60.148 52 60.3707V51.1187ZM58.6667 49.7587C59.188 49.624 59.7013 49.484 60.208 49.3373C60.348 49.2973 60.4893 49.2587 60.628 49.2173C60.8653 49.1467 61.0987 49.0747 61.332 49.0027V58.116C60.468 58.4013 59.5787 58.6707 58.6653 58.9227V49.7587H58.6667ZM64 48.104C64.38 47.9627 64.7507 47.816 65.12 47.6693C65.2187 47.6307 65.32 47.5933 65.4173 47.5533C65.8427 47.38 66.2573 47.2027 66.6667 47.0213V55.9907C65.8173 56.3973 64.928 56.7853 64 57.152V48.104ZM69.3333 45.7213C69.38 45.696 69.428 45.672 69.4747 45.648C69.5307 45.6173 69.5907 45.588 69.6467 45.5573C70.2307 45.2373 70.7893 44.9053 71.3307 44.5653C71.4533 44.488 71.5747 44.4107 71.6947 44.332C71.796 44.2667 71.9013 44.2027 72.0013 44.136V52.7813C71.192 53.404 70.2987 54 69.3347 54.5707V45.7213H69.3333ZM8 44.1373C8.10133 44.204 8.20667 44.2693 8.30933 44.336C8.428 44.412 8.54667 44.4893 8.66667 44.564C9.20933 44.904 9.76933 45.2373 10.356 45.5587C10.4093 45.588 10.4653 45.6147 10.5187 45.644C10.5667 45.6707 10.6173 45.696 10.6667 45.7213V54.5707C9.70267 54 8.80933 53.4027 8 52.7813V44.1373ZM13.3333 47.02C13.744 47.2013 14.1587 47.38 14.5853 47.5533C14.68 47.592 14.7787 47.628 14.8747 47.6667C15.2467 47.8147 15.6187 47.9627 16 48.104V57.152C15.072 56.784 14.1827 56.396 13.3333 55.9907V47.02ZM18.6667 49.004C18.9013 49.076 19.1347 49.1493 19.3733 49.22C19.5107 49.26 19.6507 49.2987 19.7893 49.3387C20.2973 49.484 20.8107 49.6253 21.3333 49.76V58.9253C20.42 58.6733 19.5307 58.404 18.6667 58.1187V49.004ZM24 50.388C24.22 50.4347 24.4413 50.48 24.664 50.5253C24.836 50.56 25.0107 50.592 25.1827 50.6253C25.9213 50.768 26.6693 50.9027 27.4293 51.024C27.5547 51.044 27.6773 51.0667 27.8027 51.0867C27.868 51.0973 27.9333 51.108 28 51.1187V60.372C26.632 60.148 25.2947 59.892 24 59.5987V50.388ZM30.6667 51.4733C30.7747 51.4853 30.8853 51.492 30.9933 51.504C31.816 51.5947 32.6467 51.676 33.4893 51.7427C33.572 51.7493 33.6533 51.7573 33.7373 51.764C34.044 51.7867 34.3573 51.804 34.6667 51.824V61.144C33.3107 61.0493 31.976 60.9213 30.6667 60.7573V51.4733ZM2.66667 44V39.3187C2.708 39.3733 2.76 39.424 2.80267 39.4787C3.10933 39.8693 3.43333 40.2547 3.78533 40.632C3.81067 40.6587 3.832 40.6867 3.85733 40.7133C4.23467 41.1133 4.64533 41.5027 5.07333 41.8853C5.16 41.9613 5.24533 42.0387 5.33333 42.1147V50.3013C3.62267 48.3373 2.66667 46.2107 2.66667 44ZM37.3333 61.2813V51.9533C38.2147 51.9813 39.1013 52 40 52C40.8987 52 41.7853 51.9813 42.6667 51.9533V61.2813C41.784 61.312 40.896 61.3333 40 61.3333C39.104 61.3333 38.216 61.312 37.3333 61.2813ZM77.3333 39.3187V44C77.3333 46.2107 76.3773 48.3373 74.6667 50.3027V42.116C74.756 42.0387 74.8413 41.9613 74.928 41.8827C75.3547 41.5 75.764 41.112 76.1413 40.7133C76.168 40.6853 76.1907 40.6573 76.216 40.6293C76.568 40.252 76.892 39.868 77.1973 39.4773C77.24 39.424 77.292 39.372 77.3333 39.3187Z" fill="white"/>
<path d="M21.2933 44.144L20.94 44.272L25.54 45.236C26.184 45.3707 26.848 45.4747 27.504 45.5907C27.6333 45.6133 27.7613 45.6387 27.8907 45.66C28.6347 45.7867 29.3853 45.9013 30.144 46.004C30.664 46.0747 31.1907 46.1413 31.7227 46.2013C32.2013 46.2547 32.6787 46.308 33.1627 46.3507C34.06 46.4347 34.972 46.5013 35.896 46.552C36.0667 46.5613 36.236 46.5733 36.4067 46.5813C37.5853 46.6373 38.7827 46.6667 40 46.6667C41.1853 46.6667 42.3533 46.6373 43.5013 46.584C43.6813 46.576 43.86 46.564 44.04 46.5547C44.928 46.5067 45.8027 46.4427 46.6653 46.3653C47.1973 46.3187 47.724 46.2627 48.2493 46.204C48.716 46.1507 49.1787 46.0933 49.6373 46.032C50.4733 45.9213 51.2987 45.7973 52.116 45.6573C52.1973 45.644 52.2773 45.628 52.3587 45.6147C53 45.5027 53.6507 45.4027 54.2787 45.2733L58.8093 44.3387L58.4733 44.2133C68.3613 41.3747 74.6667 36.5147 74.6667 32C74.6667 25.0773 59.8413 17.3333 40 17.3333C20.1587 17.3333 5.33334 25.0773 5.33334 32C5.33334 36.4787 11.5427 41.2973 21.2933 44.144ZM34.5733 37.332C31.832 36.4387 30.2693 34.8933 29.928 32.7413L29.784 31.836L28.8867 31.6453C28.296 31.52 28.1013 31.3093 28.064 31.3053L28.372 30.3053C28.408 30.1893 28.772 29.792 29.628 29.548L30.2267 29.3773L30.48 28.8093C30.8147 28.0573 31.2787 27.38 31.8573 26.796C32.1053 26.5453 32.308 26.36 32.4733 26.2107C33.0427 25.6907 33.4 25.2813 33.504 24.6267C33.5107 24.6293 33.5187 24.632 33.5267 24.6347C35.4787 25.3467 37.7333 25.4213 39.284 25.3573C39.5173 25.348 39.756 25.3427 40 25.3427C45.3813 25.3427 48.4053 26.4507 49.5173 28.828L49.7747 29.38L50.3613 29.5467C51.224 29.7907 51.5907 30.188 51.628 30.3067L51.9453 31.2453C51.9173 31.2987 51.696 31.5227 51.112 31.6453L50.216 31.836L50.072 32.7413C49.7307 34.8947 48.1667 36.4387 45.4267 37.332L44.3907 37.6693L44.7107 40.4453C44.82 41.392 45.5253 42.22 46.5507 42.6013L48.8027 43.444C48.54 43.4773 48.28 43.512 48.0147 43.5413C47.14 43.6387 46.2547 43.7187 45.36 43.784C44.94 43.8147 44.5293 43.8533 44.1013 43.8773C41.3653 44.028 38.5773 44.0253 35.8427 43.8733C35.412 43.8493 34.9973 43.812 34.576 43.78C33.6773 43.7133 32.788 43.632 31.9107 43.532C31.6427 43.5013 31.3787 43.4667 31.1147 43.4333L33.416 42.6027C34.4627 42.224 35.1813 41.3933 35.292 40.4347L35.6107 37.6707L34.5733 37.332ZM40 20C59.8507 20 72 27.7693 72 32C72 35.1093 65.4187 40.12 54.0613 42.5627L47.484 40.104C47.42 40.08 47.3747 40.0533 47.3467 40.0333L47.284 39.488C50.6493 38.0947 52.0133 35.8893 52.5267 33.9947C53.292 33.6853 53.888 33.2053 54.244 32.6C54.616 31.9667 54.7013 31.2293 54.484 30.5227L54.1773 29.524C53.8707 28.5227 52.9467 27.668 51.66 27.1707C49.368 23.156 43.948 22.676 40 22.676C39.7187 22.676 39.444 22.6827 39.1733 22.6933C37.324 22.7653 35.644 22.568 34.4413 22.1293C33.772 21.8853 33.4787 21.7067 33.364 21.6227C32.788 21.2 32.0427 21.2547 31.5587 21.4987C31.0547 21.7533 30.7413 22.2493 30.7413 22.7933C30.7413 23.0933 30.764 23.4467 30.8293 23.8413C30.844 23.928 30.8573 24.004 30.8653 24.068C30.8107 24.1187 30.748 24.1747 30.6747 24.24C30.484 24.4133 30.2493 24.6293 29.9613 24.9187C29.2973 25.5907 28.7413 26.3493 28.3053 27.1827C27.036 27.6827 26.1267 28.5307 25.8227 29.5213L25.516 30.52C25.2987 31.2267 25.384 31.964 25.756 32.5973C26.112 33.2027 26.7067 33.6827 27.472 33.992C27.9853 35.8867 29.3493 38.092 32.7147 39.4853L32.6533 40.0173C32.624 40.0387 32.576 40.068 32.5093 40.092L25.776 42.5227C14.52 40.0693 8.00001 35.0933 8.00001 32C8.00001 27.7693 20.1493 20 40 20Z" fill="white"/>
<path d="M71.6067 67.2C71.588 67.1747 71.5586 67.1627 71.5386 67.1387C71.4773 67.068 71.408 67.0133 71.3347 66.956C71.268 66.9053 71.204 66.8547 71.1306 66.8187C71.0746 66.7907 71.0173 66.7707 70.9573 66.7507C70.9546 66.7493 70.952 66.7467 70.9493 66.7467C70.9333 66.74 70.916 66.744 70.8986 66.7387C70.808 66.7133 70.7227 66.6907 70.6293 66.684C70.5986 66.6827 70.572 66.6667 70.54 66.6667H63.8733C63.136 66.6667 62.54 67.264 62.54 68C62.54 68.736 63.136 69.3333 63.8733 69.3333H68.536C66.8253 73.316 64.0626 77.3333 59.8733 77.3333C56.996 77.3333 54.152 74.7573 51.864 70.0813C51.54 69.42 50.7427 69.148 50.08 69.4693C49.4187 69.7933 49.144 70.592 49.468 71.2533C53.0053 78.4827 57.08 80 59.8733 80C63.0986 80 67.496 78.296 70.8626 70.652L73.4733 74.1333C73.7346 74.4827 74.1346 74.6667 74.5413 74.6667C74.82 74.6667 75.1 74.58 75.34 74.4C75.9293 73.9587 76.0493 73.1227 75.6067 72.5333L71.6067 67.2Z" fill="white"/>
<path d="M7.06 12.8C7.07733 12.8227 7.104 12.8307 7.12266 12.852C7.21333 12.96 7.32266 13.044 7.44533 13.1187C7.48933 13.1467 7.52533 13.184 7.57333 13.2053C7.61733 13.2253 7.66533 13.2333 7.71066 13.2493C7.71333 13.2507 7.71466 13.2533 7.71866 13.2533C7.75866 13.268 7.79866 13.264 7.83866 13.2747C7.93333 13.2973 8.024 13.3333 8.12666 13.3333H8.168C8.16933 13.3333 8.17066 13.3333 8.17066 13.3333C8.17333 13.3333 8.17466 13.3333 8.176 13.3333H14.7933C15.5293 13.3333 16.1267 12.736 16.1267 12C16.1267 11.264 15.5293 10.6667 14.7933 10.6667H10.1307C11.8413 6.684 14.604 2.66667 18.7933 2.66667C21.6707 2.66667 24.5147 5.24267 26.8027 9.91867C27.1267 10.58 27.924 10.8533 28.5867 10.5307C29.248 10.2067 29.5227 9.408 29.1987 8.74667C25.6613 1.51733 21.5867 0 18.7933 0C15.568 0 11.1707 1.704 7.804 9.348L5.19333 5.86667C4.752 5.27867 3.91866 5.15733 3.32666 5.6C2.73733 6.04133 2.61866 6.87733 3.06 7.46667L7.06 12.8Z" fill="white"/>
</svg>
