<svg width="40" height="40" viewBox="0 0 40 40" fill="none" xmlns="http://www.w3.org/2000/svg">
<path d="M20 8C17.9141 8.00265 15.9144 8.83244 14.4394 10.3074C12.9645 11.7824 12.1347 13.7821 12.132 15.868H16.132C16.132 13.734 17.868 12 20 12C22.132 12 23.868 13.734 23.868 15.868C23.868 17.064 22.906 17.932 21.436 19.12C20.9558 19.4962 20.4946 19.896 20.054 20.318C18.058 22.312 18 24.43 18 24.666V26H22L21.998 24.734C22 24.702 22.064 23.962 22.88 23.148C23.18 22.848 23.558 22.548 23.95 22.232C25.508 20.97 27.866 19.064 27.866 15.868C27.8644 13.7821 27.0352 11.7821 25.5605 10.3069C24.0857 8.83181 22.0859 8.00212 20 8ZM18 28H22V32H18V28Z" fill="#4C495D"/>
<path d="M20 0C8.972 0 0 8.972 0 20C0 31.028 8.972 40 20 40C31.028 40 40 31.028 40 20C40 8.972 31.028 0 20 0ZM20 36C11.178 36 4 28.822 4 20C4 11.178 11.178 4 20 4C28.822 4 36 11.178 36 20C36 28.822 28.822 36 20 36Z" fill="#4C495D"/>
</svg>
