<svg width="40" height="38" viewBox="0 0 40 38" fill="none" xmlns="http://www.w3.org/2000/svg">
<path d="M39.1705 18.5859L22.1223 1.54654L20.9796 0.403815C20.7192 0.145165 20.3671 0 20.0001 0C19.6331 0 19.281 0.145165 19.0206 0.403815L0.829651 18.5859C0.562858 18.8517 0.352008 19.1682 0.209545 19.5168C0.0670819 19.8654 -0.00410599 20.2389 0.000182879 20.6155C0.0178311 22.1685 1.31057 23.4083 2.86361 23.4083H4.73874V37.7784H35.2614V23.4083H37.1763C37.9307 23.4083 38.6411 23.1127 39.1749 22.5789C39.4378 22.3168 39.6461 22.0053 39.7877 21.6622C39.9293 21.3191 40.0015 20.9513 40 20.5802C40 19.8301 39.7044 19.1198 39.1705 18.5859ZM22.4708 34.6017H17.5293V25.6011H22.4708V34.6017ZM32.0847 20.2316V34.6017H25.2946V24.5422C25.2946 23.5672 24.5048 22.7774 23.5297 22.7774H16.4704C15.4954 22.7774 14.7056 23.5672 14.7056 24.5422V34.6017H7.91543V20.2316H3.67985L20.0045 3.92023L21.0237 4.93942L36.3247 20.2316H32.0847Z" fill="#4C495D"/>
</svg>
