<svg width="80" height="81" viewBox="0 0 80 81" fill="none" xmlns="http://www.w3.org/2000/svg">
<path d="M74.5454 23.2273C68.8104 9.19456 55.1593 0.0229267 39.9998 0.0175934C22.9836 0.0640932 8.13947 11.581 3.86665 28.0521L2.04399 26.8921C1.42099 26.4996 0.597664 26.6866 0.205166 27.3096C0.0716665 27.5216 0.000500138 27.767 1.39596e-07 28.0175V46.6841C-0.000333192 47.4204 0.596331 48.0176 1.33283 48.0179C1.58666 48.0181 1.83533 47.9457 2.04932 47.8094L3.87065 46.6494C6.82964 58.0632 14.9999 67.4121 25.9146 71.8733L22.8066 78.0879C22.4774 78.7466 22.7446 79.5474 23.4032 79.8766C23.5886 79.9691 23.7927 80.0173 23.9999 80.0173H55.9998C56.7361 80.0213 57.3364 79.4276 57.3404 78.6913C57.3416 78.4819 57.2934 78.2753 57.1998 78.0879L54.1104 71.9093C73.1965 64.1092 82.3457 42.3134 74.5454 23.2273ZM2.66666 44.2561V30.4455L13.5159 37.3508L2.66666 44.2561ZM67.5824 47.3321L43.4838 37.3508L67.5824 27.3695C69.9162 33.8191 69.9162 40.8826 67.5824 47.3321ZM42.4638 39.8148L66.5557 49.7934C63.6326 55.9937 58.6428 60.9835 52.4425 63.9067V63.9013L42.4638 39.8148ZM39.9998 40.8348L49.9811 64.9333C43.5348 67.2758 36.4685 67.2673 30.0279 64.9093L39.9998 40.8348ZM27.5652 63.884C21.3729 60.963 16.3888 55.9799 13.4666 49.7881L37.5358 39.8148L27.5652 63.884ZM42.4638 34.8868L52.4425 10.7949C58.6428 13.718 63.6326 18.7078 66.5557 24.9082L42.4638 34.8868ZM39.9998 33.8668L30.0279 9.79222C36.4685 7.43423 43.5348 7.42573 49.9811 9.76822L39.9998 33.8668ZM37.5358 34.8881L13.4666 24.9135C16.3878 18.721 21.3722 13.7375 27.5652 10.8175L37.5358 34.8881ZM36.5159 37.3508L12.4359 47.3254C11.8163 45.6196 11.3578 43.8594 11.0666 42.0681L16.7119 38.4761C17.3334 38.0811 17.5171 37.2571 17.1221 36.6356C17.0171 36.4704 16.8771 36.3304 16.7119 36.2254L11.0666 32.6335C11.3578 30.8421 11.8163 29.082 12.4359 27.3761L36.5159 37.3508ZM26.1572 77.3506L28.4305 72.804C35.9449 75.3001 44.063 75.3108 51.5838 72.8346L53.8424 77.3506H26.1572ZM39.9998 72.0173C23.8727 71.98 9.89163 60.8497 6.23997 45.1414L8.63997 43.6134C12.0986 60.9448 28.9524 72.1906 46.2836 68.732C63.6149 65.2732 74.8609 48.4196 71.402 31.0883C67.9432 13.7569 51.0896 2.51108 33.7584 5.96974C21.0802 8.49989 11.1701 18.4102 8.63997 31.0881L6.23997 29.5588C10.5478 10.9085 29.159 -0.718404 47.8093 3.58941C66.4596 7.89723 78.0865 26.5085 73.7787 45.1587C70.1464 60.8847 56.1398 72.0218 39.9998 72.0173Z" fill="white"/>
<path d="M78.745 19.4575C75.6233 12.7284 70.8104 6.9234 64.7757 2.60958C64.1767 2.18108 63.3436 2.31925 62.9151 2.91825C62.4866 3.51724 62.6247 4.35041 63.2237 4.77891C68.884 8.82272 73.3979 14.2664 76.3237 20.5775C76.542 21.0492 77.0145 21.351 77.5343 21.3508C77.7278 21.3513 77.9192 21.309 78.0943 21.2268C78.7625 20.9178 79.0537 20.1258 78.745 19.4575Z" fill="white"/>
<path d="M76.2235 5.85706C76.2097 5.8404 76.1955 5.82423 76.181 5.80823C74.455 3.82907 72.5702 1.99458 70.545 0.322919C69.987 -0.157579 69.145 -0.0945794 68.6647 0.463418C68.1842 1.02142 68.2472 1.86341 68.8052 2.34374C68.8192 2.35574 68.8334 2.36741 68.8477 2.37891C70.7595 3.95924 72.54 5.69206 74.1717 7.56022C74.642 8.12689 75.4827 8.20489 76.0492 7.73456C76.6158 7.26422 76.6938 6.42373 76.2235 5.85706Z" fill="white"/>
<path d="M79.7717 10.4695L79.3943 9.9202C78.9667 9.32071 78.134 9.18154 77.5345 9.6092C76.9432 10.0312 76.7984 10.8489 77.209 11.4482L77.561 11.9615C77.973 12.572 78.8018 12.7329 79.4123 12.3209C80.0228 11.9089 80.1837 11.08 79.7717 10.4695Z" fill="white"/>
</svg>
