<svg width="40" height="40" viewBox="0 0 40 40" fill="none" xmlns="http://www.w3.org/2000/svg">
<path d="M35.5556 0H4.44444C3.2657 0 2.13524 0.468252 1.30175 1.30175C0.468252 2.13524 0 3.2657 0 4.44444V35.5556C0 36.7343 0.468252 37.8648 1.30175 38.6983C2.13524 39.5317 3.2657 40 4.44444 40H35.5556C36.7343 40 37.8648 39.5317 38.6983 38.6983C39.5317 37.8648 40 36.7343 40 35.5556V4.44444C40 3.2657 39.5317 2.13524 38.6983 1.30175C37.8648 0.468252 36.7343 0 35.5556 0ZM35.5556 35.5556H4.44444V4.44444H35.5556V35.5556ZM13.3333 31.1111H8.88889V20H13.3333V31.1111ZM22.2222 31.1111H17.7778V8.88889H22.2222V31.1111ZM31.1111 31.1111H26.6667V15.5556H31.1111V31.1111Z" fill="#4C495D"/>
</svg>
