<svg width="35" height="40" viewBox="0 0 35 40" fill="none" xmlns="http://www.w3.org/2000/svg">
<path d="M0 35.5556H34.7826V40H0V35.5556ZM15.6522 11.1111H19.1304V28.8889H15.6522V11.1111ZM10.3739 11.1111H14.0696L8.87652 28.8089H5.39826L0.205217 11.1111H3.90087L7.13739 22.4733L10.3739 11.1111ZM26.087 24.4444V28.8889H22.6087V11.1111H29.5652C30.949 11.1111 32.276 11.8135 33.2545 13.0637C34.2329 14.314 34.7826 16.0097 34.7826 17.7778C34.7826 19.5459 34.2329 21.2416 33.2545 22.4918C32.276 23.7421 30.949 24.4444 29.5652 24.4444H26.087ZM26.087 15.5556V20H29.5652C30.0265 20 30.4688 19.7659 30.795 19.3491C31.1211 18.9324 31.3043 18.3671 31.3043 17.7778C31.3043 17.1884 31.1211 16.6232 30.795 16.2064C30.4688 15.7897 30.0265 15.5556 29.5652 15.5556H26.087ZM0 0H34.7826V4.44444H0V0Z" fill="#4C495D"/>
</svg>
